<?xml version="1.0" encoding="utf-8"?>
<!-- Svg Vector Icons : http://www.onlinewebfonts.com/icon -->
<!DOCTYPE svg PUBLIC "-//W3C//DTD SVG 1.1//EN" "http://www.w3.org/Graphics/SVG/1.1/DTD/svg11.dtd">
<svg version="1.1" xmlns="http://www.w3.org/2000/svg" xmlns:xlink="http://www.w3.org/1999/xlink" x="0px" y="0px" viewBox="0 0 1000 1000" enable-background="new 0 0 1000 1000" xml:space="preserve">
<metadata> Svg Vector Icons : http://www.onlinewebfonts.com/icon </metadata>
<g><g transform="translate(0.000000,511.000000) scale(0.100000,-0.100000)"><path d="M8052.3,4380.5c-565.8-140.5-997-587.5-1117.7-1157.2c-164.2-777.4,316.5-1546.9,1099.9-1762.6c174.1-49.5,571.7-49.5,749.7,0c419.4,112.8,785.4,411.5,969.3,793.2c120.7,251.2,148.4,373.9,146.4,682.5c-2,233.4-7.9,286.8-53.4,425.3c-130.6,389.7-397.6,710.2-737.9,886.2C8780.2,4416.1,8392.5,4465.6,8052.3,4380.5z M8695.2,4093.7c518.3-130.6,888.2-583.6,915.9-1117.7c35.6-714.1-567.7-1307.6-1279.9-1260.1c-484.6,33.6-904,350.1-1064.3,805.1c-67.2,195.8-85.1,486.6-37.6,672.6c108.8,437.2,453,785.3,882.3,898.1C8256,4129.3,8548.8,4131.3,8695.2,4093.7z"/><path d="M8230.3,3391.4v-296.7h-306.6h-306.6v-168.1v-166.2l302.7-5.9l300.7-5.9l5.9-300.7l5.9-302.7h176.1h178v294.7v294.8l61.3,13.8c33.6,7.9,134.5,11.9,223.6,7.9c87-2,197.8-4,245.3-2l83.1,4v168.1v168.1H8893h-306.6v296.7v296.7h-178h-178V3391.4z"/><path d="M100,3836.5v-148.4h65.3c180-2,536.1-43.5,666.6-81.1c379.8-104.8,591.5-332.3,720.1-773.5c59.3-205.7,346.2-1363,587.5-2369.9c364-1521.2,439.2-1792.2,553.9-2033.6c140.5-292.8,354.1-458.9,720.1-561.8l158.3-45.5l2132.5-5.9l2132.5-5.9l-5.9,144.4l-5.9,144.4l-2116.6,9.9c-1928.7,9.9-2126.5,13.9-2231.4,45.5c-168.1,49.5-290.8,118.7-383.8,215.6c-83.1,85.1-205.7,322.4-233.4,445.1l-13.9,65.3h2381.7h2379.7l118.7,57.4c134.5,63.3,267.1,187.9,314.5,294.7c17.8,39.6,160.2,512.4,316.5,1048.4l282.9,973.3h-154.3h-154.3l-31.6-108.8l-31.6-108.8h-929.7h-929.7l11.9,124.6c5.9,67.3,19.8,332.3,29.7,587.5c11.9,255.2,25.7,530.1,31.7,609.3l11.9,142.4h148.4c144.4,0,148.4,2,136.5,45.5c-5.9,23.7-17.8,91-23.7,146.4l-13.9,104.8l-2431.2,4l-2433.2,5.9l-73.2,209.7c-98.9,275-180,417.4-332.3,565.8c-146.4,146.4-407.5,280.9-639,332.3c-118.7,25.7-514.3,65.3-696.3,69.2C104,3984.9,100,3965.1,100,3836.5z M3789.3,2437.9C3807.1,2329.1,4274-784.5,4274-804.3c0-9.9-316.5-17.8-759.6-17.8h-759.6l-9.9,45.5c-39.6,180-587.5,2433.2-682.5,2809l-118.7,468.8h917.9h915.9L3789.3,2437.9z M6184.9,2368.7c-5.9-75.2-19.8-366-31.6-648.8c-11.9-282.9-25.7-551.9-31.6-597.4l-9.9-85.1h-910c-549.9,0-908,7.9-908,17.8c0,19.8-189.9,1301.6-207.7,1392.6l-7.9,53.4h1058.3h1060.3L6184.9,2368.7z M6070.1,64.1c-17.8-373.9-33.6-726-33.6-781.4l-2-104.8h-728h-728L4465.8-64.5c-63.3,415.4-112.8,767.5-112.8,781.4c0,17.8,187.9,23.7,876.3,23.7h874.4L6070.1,64.1z M8171,722.9c0-9.9-89-322.4-195.9-694.4c-164.2-567.7-205.7-686.4-253.2-735.9c-108.8-114.7-108.8-114.7-777.4-114.7c-569.7,0-613.2,2-613.2,35.6c-2,87.1,63.3,1479.7,71.2,1503.4c5.9,17.8,199.8,23.7,888.2,23.7C7816.9,740.7,8171,732.8,8171,722.9z"/><path d="M2622.2-2452.1c-259.1-85.1-449.1-249.3-561.8-484.7c-69.2-146.4-71.2-156.3-71.2-379.8c0-223.5,2-229.5,75.2-379.8c96.9-195.8,227.5-326.4,417.4-421.3c126.6-61.3,172.1-73.2,322.5-81.1c276.9-15.8,480.7,55.4,674.6,237.4c184,176.1,280.9,397.6,280.9,646.9c0,348.2-189.9,646.9-512.3,807.1c-136.5,67.3-162.2,73.2-346.2,77.2C2774.5-2426.4,2671.6-2434.3,2622.2-2452.1z M3079.1-2754.8c132.5-45.5,304.6-217.6,350.1-350.1c130.6-383.8-128.6-777.4-524.2-799.2c-193.9-11.9-314.5,35.6-453,172.1c-140.4,142.4-185.9,261.1-172.1,466.8c7.9,108.8,21.8,166.2,61.3,233.4c67.3,114.7,211.7,241.3,316.5,278.9C2770.5-2713.2,2960.4-2713.2,3079.1-2754.8z"/><path d="M7235.3-2444.2c-193.9-49.5-439.2-233.4-542-411.5c-158.3-269-162.2-619.2-11.9-898.1c61.3-112.8,243.3-290.8,354.1-348.2c156.3-79.1,300.7-108.8,488.6-96.9c150.4,7.9,195.8,19.8,320.5,81.1c324.4,160.2,504.4,445.1,504.4,801.2c0,191.9-47.5,352.1-148.4,504.4c-93,140.4-199.8,229.5-377.8,312.5c-120.7,55.4-158.2,65.3-324.4,69.2C7395.5-2428.4,7276.8-2434.3,7235.3-2444.2z M7725.9-2774.6c106.8-57.4,235.4-193.9,284.9-302.7c59.4-130.6,57.4-352.1-6-484.7c-57.3-124.6-219.6-273-342.2-314.5c-288.8-98.9-591.5,27.7-741.8,310.6c-37.6,67.3-45.5,114.7-45.5,251.2c0,144.4,7.9,182,53.4,269c63.3,120.7,205.7,251.2,318.5,292.8C7365.8-2709.3,7621-2721.2,7725.9-2774.6z"/></g></g>
</svg>